<!-- Generator: Adobe Illustrator 21.0.0, SVG Export Plug-In  -->
<svg version="1.1"
	 xmlns="http://www.w3.org/2000/svg" xmlns:xlink="http://www.w3.org/1999/xlink" xmlns:a="http://ns.adobe.com/AdobeSVGViewerExtensions/3.0/"
	 x="0px" y="0px" width="40px" height="43.6px" viewBox="0 0 40 43.6" style="enable-background:new 0 0 40 43.6;"
	 xml:space="preserve">
<style type="text/css">
	.st0{fill:#666666;}
</style>
<defs>
</defs>
<g>
	<g>
		<path class="st0" d="M20.4,15.2h-0.7v9.5h12.5v-0.7H20.4V15.2z M20.4,3.8V1.7h1.8V0.9h-4.3v0.7h1.8v2.2C8.8,4,0.1,12.9,0.1,23.7
			c0,11,8.9,19.9,19.9,19.9c11,0,19.9-8.9,19.9-19.9C39.9,12.9,31.2,4,20.4,3.8L20.4,3.8z M37.4,23.7c0,2.4-0.5,4.6-1.4,6.8
			c-0.9,2.1-2.1,3.9-3.7,5.5c-1.6,1.6-3.5,2.9-5.5,3.7c-2.1,0.9-4.4,1.4-6.8,1.4c-2.4,0-4.6-0.5-6.8-1.4c-2.1-0.9-3.9-2.1-5.5-3.7
			c-1.6-1.6-2.9-3.5-3.7-5.5c-0.9-2.1-1.4-4.4-1.4-6.8c0-2.4,0.5-4.6,1.4-6.8c0.9-2.1,2.1-3.9,3.7-5.5c1.6-1.6,3.5-2.9,5.5-3.7
			c2.1-0.9,4.4-1.4,6.8-1.4c2.4,0,4.6,0.5,6.8,1.4c2.1,0.9,3.9,2.1,5.5,3.7c1.6,1.6,2.9,3.5,3.7,5.5C36.9,19.1,37.4,21.4,37.4,23.7
			L37.4,23.7z M38,11.2l2-1.4c-1.7-2.4-3.8-4.5-6.2-6.2c-2.4-1.7-5.2-2.9-8.2-3.6L25,2.4c2.7,0.6,5.1,1.7,7.3,3.2
			C34.5,7.2,36.4,9,38,11.2L38,11.2z M7.5,5.8c2.1-1.5,4.5-2.6,7.1-3.2L14,0.1c-2.9,0.7-5.6,2-7.9,3.6C3.7,5.4,1.7,7.4,0,9.8l2,1.4
			C3.5,9.1,5.4,7.2,7.5,5.8L7.5,5.8z M7.5,5.8"/>
	</g>
</g>
</svg>
